<svg width="24" height="24" viewBox="0 0 24 24" fill="none" xmlns="http://www.w3.org/2000/svg">
<path d="M18 8H16C15.45 8 15 8.45 15 9C15 9.55 15.45 10 16 10H18V21H6V10H8C8.55 10 9 9.55 9 9C9 8.45 8.55 8 8 8H6C4.9 8 4 8.9 4 10V21C4 22.1 4.9 23 6 23H18C19.1 23 20 22.1 20 21V10C20 8.9 19.1 8 18 8Z" fill="black"/>
<path d="M12 16C12.55 16 13 15.55 13 15V4.99999H14.79C15.24 4.99999 15.46 4.45999 15.14 4.14999L12.35 1.35999C12.15 1.15999 11.84 1.15999 11.64 1.35999L8.85003 4.14999C8.78093 4.22049 8.73424 4.30986 8.71585 4.40685C8.69746 4.50384 8.70819 4.6041 8.74668 4.695C8.78518 4.7859 8.84973 4.86337 8.93218 4.91764C9.01464 4.97192 9.11132 5.00057 9.21003 4.99999H11V15C11 15.55 11.45 16 12 16Z" fill="black"/>
</svg>
