<svg width="16" height="17" viewBox="0 0 16 17" fill="none" xmlns="http://www.w3.org/2000/svg">
<path d="M2 12.1399V14.1666C2 14.3533 2.14667 14.4999 2.33333 14.4999H4.36C4.44667 14.4999 4.53333 14.4666 4.59333 14.3999L11.8733 7.12659L9.37333 4.62659L2.1 11.8999C2.03333 11.9666 2 12.0466 2 12.1399ZM13.8067 5.19325C13.8685 5.13158 13.9175 5.05832 13.951 4.97767C13.9844 4.89702 14.0016 4.81057 14.0016 4.72325C14.0016 4.63594 13.9844 4.54949 13.951 4.46884C13.9175 4.38819 13.8685 4.31493 13.8067 4.25325L12.2467 2.69325C12.185 2.63145 12.1117 2.58242 12.0311 2.54897C11.9504 2.51551 11.864 2.49829 11.7767 2.49829C11.6894 2.49829 11.6029 2.51551 11.5223 2.54897C11.4416 2.58242 11.3683 2.63145 11.3067 2.69325L10.0867 3.91325L12.5867 6.41325L13.8067 5.19325Z" fill="#C4AFFF"/>
</svg>
