<svg width="20" height="20" viewBox="0 0 20 20" fill="none" xmlns="http://www.w3.org/2000/svg">
<path d="M9.99935 3.33341C13.6743 3.33341 16.666 6.32508 16.666 10.0001C16.666 13.6751 13.6743 16.6667 9.99935 16.6667C6.32435 16.6667 3.33268 13.6751 3.33268 10.0001C3.33268 6.32508 6.32435 3.33341 9.99935 3.33341ZM9.99935 1.66675C5.39935 1.66675 1.66602 5.40008 1.66602 10.0001C1.66602 14.6001 5.39935 18.3334 9.99935 18.3334C14.5993 18.3334 18.3327 14.6001 18.3327 10.0001C18.3327 5.40008 14.5993 1.66675 9.99935 1.66675ZM10.8327 10.0001V7.50008C10.8327 7.04175 10.4577 6.66675 9.99935 6.66675C9.54102 6.66675 9.16602 7.04175 9.16602 7.50008V10.0001H7.67435C7.29935 10.0001 7.11602 10.4501 7.38268 10.7084L9.70768 13.0334C9.87435 13.2001 10.1327 13.2001 10.2993 13.0334L12.6243 10.7084C12.6814 10.6502 12.7202 10.5765 12.7358 10.4964C12.7514 10.4164 12.7432 10.3335 12.7121 10.2581C12.6811 10.1826 12.6286 10.118 12.5611 10.0721C12.4937 10.0263 12.4142 10.0012 12.3327 10.0001H10.8327Z" fill="#C4AFFF"/>
</svg>
