<svg width="24" height="24" viewBox="0 0 24 24" fill="none" xmlns="http://www.w3.org/2000/svg">
<path d="M19.7805 17.51C17.3105 17.51 13.2105 16.18 11.1005 12.08C8.77047 7.57001 10.6005 3.60001 11.6305 2.01001C6.27047 2.20001 1.98047 6.59001 1.98047 12C1.98047 12.14 2.00047 12.28 2.00047 12.42C2.61047 12.16 3.28047 12 3.98047 12C3.98047 8.91001 5.71047 6.23001 8.28047 4.90001C7.78047 7.09001 7.74047 9.94001 9.32047 13C10.8905 16.04 13.5005 17.95 16.1205 18.86C14.4379 19.8741 12.441 20.2336 10.5105 19.87C10.1405 20.57 9.57047 21.14 8.87047 21.51C9.85047 21.83 10.9005 22.01 11.9805 22.01C15.4805 22.01 18.5605 20.21 20.3505 17.49C20.1805 17.5 19.9805 17.51 19.7805 17.51Z" fill="#C4AFFF"/>
<path d="M7 16H6.82C6.4 14.84 5.3 14 4 14C2.34 14 1 15.34 1 17C1 18.66 2.34 20 4 20H7C8.1 20 9 19.1 9 18C9 16.9 8.1 16 7 16Z" fill="#333333"/>
</svg>
