<svg width="20" height="21" viewBox="0 0 20 21" fill="none" xmlns="http://www.w3.org/2000/svg">
<path d="M10 0.5C4.48 0.5 0 4.14478 0 8.63568C0 12.2805 2.94 15.3558 7 16.3971V19.6839C7 20.4161 7.54 20.7741 7.85 20.2534L10.64 15.7137C10.84 15.3883 10.84 14.8839 10.64 14.5585L7.85 10.0187C7.7795 9.90631 7.69013 9.83034 7.59314 9.80041C7.49616 9.77049 7.39589 9.78795 7.30499 9.85059C7.2141 9.91323 7.13663 10.0183 7.08235 10.1524C7.02807 10.2866 6.99942 10.4439 7 10.6045V13.0778C3.85 12.1666 2 9.9862 2 8.63568C2 6.91092 5.04 3.75427 10 3.75427C14.96 3.75427 18 6.91092 18 8.63568C18 9.70959 16.8 11.3693 14.68 12.4432C14.27 12.6547 14 13.273 14 13.9727C14 15.0629 14.65 15.8602 15.28 15.5347C18.11 14.1029 20 11.5483 20 8.63568C20 4.14478 15.52 0.5 10 0.5Z" fill="#333333"/>
</svg>
