<svg width="24" height="24" viewBox="0 0 24 24" fill="none" xmlns="http://www.w3.org/2000/svg">
<path d="M12 0C5.376 0 0 4.37374 0 9.76282C0 14.1366 3.528 17.8269 8.4 19.0765V23.0207C8.4 23.8994 9.048 24.3289 9.42 23.7041L12.768 18.2565C13.008 17.866 13.008 17.2607 12.768 16.8701L9.42 11.4225C9.33541 11.2876 9.22816 11.1964 9.11177 11.1605C8.99539 11.1246 8.87507 11.1455 8.76599 11.2207C8.65691 11.2959 8.56395 11.4219 8.49882 11.5829C8.43369 11.7439 8.3993 11.9327 8.4 12.1254V15.0933C4.62 13.9999 2.4 11.3834 2.4 9.76282C2.4 7.6931 6.048 3.90513 12 3.90513C17.952 3.90513 21.6 7.6931 21.6 9.76282C21.6 11.0515 20.16 13.0431 17.616 14.3318C17.124 14.5856 16.8 15.3276 16.8 16.1672C16.8 17.4754 17.58 18.4322 18.336 18.0417C21.732 16.3234 24 13.2579 24 9.76282C24 4.37374 18.624 0 12 0Z" fill="white"/>
</svg>
